<?xml version="1.0" ?><svg width="512px" height="512px" viewBox="0 0 512 512" data-name="Layer 1" id="Layer_1" xmlns="http://www.w3.org/2000/svg"><title/><path d="M313.28,77.79c-98.27,0-178.21,80-178.21,178.21S215,434.21,313.28,434.21,491.48,354.26,491.48,256,411.54,77.79,313.28,77.79Zm0,340.42c-89.45,0-162.21-72.77-162.21-162.21S223.83,93.79,313.28,93.79,475.48,166.56,475.48,256,402.72,418.21,313.28,418.21ZM449.14,256a135.06,135.06,0,0,0-13.81-59.65,8,8,0,0,0-.74-1.46A136.32,136.32,0,0,0,409,159.64a8.11,8.11,0,0,0-1.45-1.42,135.44,135.44,0,0,0-94.23-38.08,137,137,0,0,0-19.44,1.39l-.43.06A134.7,134.7,0,0,0,251,135.28a8.11,8.11,0,0,0-1.37.72,136.22,136.22,0,0,0-70.24,96.94,7.39,7.39,0,0,0-.14.82,136,136,0,0,0,0,44.47,7.56,7.56,0,0,0,.14.83A136.24,136.24,0,0,0,249.61,376a7.7,7.7,0,0,0,1.39.74,135.09,135.09,0,0,0,42.26,13.66l.32,0A135.73,135.73,0,0,0,407.5,353.78a7.94,7.94,0,0,0,1.47-1.43,136.42,136.42,0,0,0,25.62-35.23,8.18,8.18,0,0,0,.74-1.48A135,135,0,0,0,449.14,256Zm-47.38,80.77L329.2,284.05a8,8,0,0,0-3.61-1.45,29.39,29.39,0,0,0,16.81-23.1,8.07,8.07,0,0,0,2.48,3l72.59,52.73A120.29,120.29,0,0,1,401.76,336.77Zm-138,28.4,27.74-85.36a8.12,8.12,0,0,0,.25-3.91A29.2,29.2,0,0,0,319,284.76a8,8,0,0,0-2.06,3.29l-27.73,85.38A119.37,119.37,0,0,1,263.79,365.17ZM193.41,256a119.93,119.93,0,0,1,.75-13.34h89.76a8,8,0,0,0,3.76-.95,29.26,29.26,0,0,0,0,28.59,8,8,0,0,0-3.78-1H194.16A119.93,119.93,0,0,1,193.41,256Zm95.76-117.43L316.9,224a7.94,7.94,0,0,0,2,3.26,29.27,29.27,0,0,0-27.15,8.86,8,8,0,0,0-.25-3.88l-27.74-85.36A119.46,119.46,0,0,1,289.17,138.57Zm112.59,36.66a120.29,120.29,0,0,1,15.71,21.57l-72.59,52.73a8.07,8.07,0,0,0-2.48,3,29.4,29.4,0,0,0-16.77-23.11,7.93,7.93,0,0,0,3.58-1.44Zm-88.47,94.09A13.33,13.33,0,1,1,326.62,256,13.35,13.35,0,0,1,313.29,269.32ZM363.2,256l61.34-44.57a119.79,119.79,0,0,1,0,89.14ZM390,164l-61.3,44.54-23.42-72.12q4-.27,8-.27A119.33,119.33,0,0,1,390,164Zm-140.53-9.42,23.43,72.09H197.05A120.28,120.28,0,0,1,249.48,154.57ZM197.05,285.34h75.86l-23.43,72.09A120.25,120.25,0,0,1,197.05,285.34Zm108.23,90.25,23.42-72.12L390,348a119.33,119.33,0,0,1-76.73,27.85Q309.25,375.86,305.28,375.59ZM412.87,156.14A8,8,0,0,1,424.36,145a157.21,157.21,0,0,1,24.95,32.47,8,8,0,0,1-2.93,10.93,8,8,0,0,1-10.93-2.93A140.94,140.94,0,0,0,413,156.28Zm-181-25.22A8,8,0,0,1,234.73,120a158.2,158.2,0,0,1,119.18-15.7,8,8,0,0,1-4.12,15.46,142.09,142.09,0,0,0-107,14.08,8,8,0,0,1-10.93-2.91ZM49.27,170.68a8,8,0,0,1,8-8h85.8a8,8,0,0,1,0,16H57.27A8,8,0,0,1,49.27,170.68Zm101.8,170.48a8,8,0,0,1-8,8H57.27a8,8,0,1,1,0-16h85.8A8,8,0,0,1,151.07,341.16ZM114.32,264H28.52a8,8,0,1,1,0-16h85.8a8,8,0,0,1,0,16Z"/></svg>