<?xml version="1.0" encoding="iso-8859-1"?>
<!-- Generator: Adobe Illustrator 19.0.0, SVG Export Plug-In . SVG Version: 6.00 Build 0)  -->
<svg version="1.1" id="Layer_1" xmlns="http://www.w3.org/2000/svg" xmlns:xlink="http://www.w3.org/1999/xlink" x="0px" y="0px"
	 viewBox="0 0 512 512" style="enable-background:new 0 0 512 512;" xml:space="preserve">
<g>
	<g>
		<g>
			<path d="M194.403,65.46l-4.853-15.026c-5.645,1.823-11.287,3.909-16.769,6.199l6.088,14.57
				C183.947,69.081,189.174,67.149,194.403,65.46z"/>
			<path d="M148.206,87.276l-8.514-13.298c-22.672,14.516-42.233,32.904-58.138,54.652l12.745,9.32
				C109.048,117.784,127.184,100.735,148.206,87.276z"/>
			<path d="M437.019,74.981C388.667,26.629,324.38,0,255.999,0c-68.38,0-132.668,26.628-181.019,74.981
				C26.629,123.333,0,187.62,0,256.001s26.628,132.668,74.981,181.019C123.333,485.371,187.619,512,255.999,512
				s132.668-26.628,181.019-74.981C485.371,388.667,512,324.381,512,256S485.371,123.333,437.019,74.981z M495.363,235.815
				l-54.771-39.793l20.953-64.485C480.7,163.039,492.282,198.555,495.363,235.815z M425.854,86.146
				c8.992,8.992,17.169,18.58,24.524,28.66l-25.534,78.583l-69.203,33.325l-91.746-66.657V75.689l66.392-48.236
				C365.933,38.997,398.595,58.886,425.854,86.146z M345.537,238.889l-34.201,105.256H200.664l-34.2-105.256L256,173.838
				L345.537,238.889z M255.999,15.79c18.702,0,37.073,2.138,54.846,6.27l-54.846,39.849L201.153,22.06
				C218.928,17.928,237.299,15.79,255.999,15.79z M86.145,86.146c27.26-27.26,59.922-47.149,95.568-58.694l66.392,48.237v84.366
				l-91.747,66.658l-69.203-33.325L61.62,114.806C68.976,104.726,77.153,95.138,86.145,86.146z M50.455,131.536l20.952,64.485
				l-54.769,39.793C19.718,198.555,31.3,163.039,50.455,131.536z M15.79,256.001c0-0.018,0.001-0.035,0.001-0.053l65.722-47.75
				l69.203,33.325l35.302,108.65l-41.909,47.061h-82.46C31.878,356.446,15.79,307.462,15.79,256.001z M86.145,425.855
				c-4.154-4.154-8.132-8.435-11.94-12.831h67.71l20.968,64.532C134.556,465.649,108.529,448.238,86.145,425.855z M255.999,496.21
				c-25.594,0-50.571-3.987-74.237-11.647l-25.203-77.567l41.908-47.061h115.064l41.908,47.062l-25.202,77.566
				C306.571,492.222,281.593,496.21,255.999,496.21z M425.854,425.855c-22.383,22.383-48.41,39.794-76.737,51.702l20.968-64.532
				h67.71C433.986,417.42,430.008,421.701,425.854,425.855z M367.889,397.232v0.002l-41.908-47.062l35.302-108.65l69.203-33.325
				l65.723,47.75c0,0.017,0.001,0.035,0.001,0.052c0,51.463-16.088,100.446-45.861,141.233H367.889z"/>
		</g>
	</g>
</g>
<g>
</g>
<g>
</g>
<g>
</g>
<g>
</g>
<g>
</g>
<g>
</g>
<g>
</g>
<g>
</g>
<g>
</g>
<g>
</g>
<g>
</g>
<g>
</g>
<g>
</g>
<g>
</g>
<g>
</g>
</svg>
